<svg width="111" height="44" viewBox="0 0 111 44" fill="none" xmlns="http://www.w3.org/2000/svg">
<path d="M52.5795 19.2102V18.2727H59.125V19.2102H56.3807V27H55.3239V19.2102H52.5795ZM61.8129 18.2727V27H60.756V18.2727H61.8129ZM70.9545 21H69.8977C69.8352 20.696 69.7259 20.429 69.5696 20.1989C69.4162 19.9688 69.2287 19.7756 69.0071 19.6193C68.7884 19.4602 68.5455 19.3409 68.2784 19.2614C68.0114 19.1818 67.733 19.142 67.4432 19.142C66.9148 19.142 66.4361 19.2756 66.0071 19.5426C65.581 19.8097 65.2415 20.2031 64.9886 20.723C64.7386 21.2429 64.6136 21.8807 64.6136 22.6364C64.6136 23.392 64.7386 24.0298 64.9886 24.5497C65.2415 25.0696 65.581 25.4631 66.0071 25.7301C66.4361 25.9972 66.9148 26.1307 67.4432 26.1307C67.733 26.1307 68.0114 26.0909 68.2784 26.0114C68.5455 25.9318 68.7884 25.8139 69.0071 25.6577C69.2287 25.4986 69.4162 25.304 69.5696 25.0739C69.7259 24.8409 69.8352 24.5739 69.8977 24.2727H70.9545C70.875 24.7187 70.7301 25.1179 70.5199 25.4702C70.3097 25.8224 70.0483 26.1222 69.7358 26.3693C69.4233 26.6136 69.0724 26.7997 68.6832 26.9276C68.2969 27.0554 67.8835 27.1193 67.4432 27.1193C66.6989 27.1193 66.0369 26.9375 65.4574 26.5739C64.8778 26.2102 64.4219 25.6932 64.0895 25.0227C63.7571 24.3523 63.5909 23.5568 63.5909 22.6364C63.5909 21.7159 63.7571 20.9205 64.0895 20.25C64.4219 19.5795 64.8778 19.0625 65.4574 18.6989C66.0369 18.3352 66.6989 18.1534 67.4432 18.1534C67.8835 18.1534 68.2969 18.2173 68.6832 18.3452C69.0724 18.473 69.4233 18.6605 69.7358 18.9077C70.0483 19.152 70.3097 19.4503 70.5199 19.8026C70.7301 20.152 70.875 20.5511 70.9545 21ZM72.6623 27V18.2727H73.7191V22.6023H73.8214L77.7418 18.2727H79.1225L75.4577 22.2102L79.1225 27H77.8441L74.81 22.9432L73.7191 24.1705V27H72.6623ZM80.4904 27V18.2727H85.7575V19.2102H81.5472V22.1591H85.4847V23.0966H81.5472V26.0625H85.8256V27H80.4904ZM87.185 19.2102V18.2727H93.7305V19.2102H90.9862V27H89.9293V19.2102H87.185ZM94.8842 19.2102V18.2727H101.43V19.2102H98.6854V27H97.6286V19.2102H94.8842ZM110.061 22.6364C110.061 23.5568 109.895 24.3523 109.562 25.0227C109.23 25.6932 108.774 26.2102 108.195 26.5739C107.615 26.9375 106.953 27.1193 106.209 27.1193C105.464 27.1193 104.803 26.9375 104.223 26.5739C103.643 26.2102 103.188 25.6932 102.855 25.0227C102.523 24.3523 102.357 23.5568 102.357 22.6364C102.357 21.7159 102.523 20.9205 102.855 20.25C103.188 19.5795 103.643 19.0625 104.223 18.6989C104.803 18.3352 105.464 18.1534 106.209 18.1534C106.953 18.1534 107.615 18.3352 108.195 18.6989C108.774 19.0625 109.23 19.5795 109.562 20.25C109.895 20.9205 110.061 21.7159 110.061 22.6364ZM109.038 22.6364C109.038 21.8807 108.912 21.2429 108.659 20.723C108.409 20.2031 108.07 19.8097 107.641 19.5426C107.214 19.2756 106.737 19.142 106.209 19.142C105.68 19.142 105.202 19.2756 104.773 19.5426C104.347 19.8097 104.007 20.2031 103.754 20.723C103.504 21.2429 103.379 21.8807 103.379 22.6364C103.379 23.392 103.504 24.0298 103.754 24.5497C104.007 25.0696 104.347 25.4631 104.773 25.7301C105.202 25.9972 105.68 26.1307 106.209 26.1307C106.737 26.1307 107.214 25.9972 107.641 25.7301C108.07 25.4631 108.409 25.0696 108.659 24.5497C108.912 24.0298 109.038 23.392 109.038 22.6364Z" fill="black"/>
<path d="M44 0H0V44H44V0Z" fill="black"/>
<path d="M35.7596 22.0501L28.6336 14.9001L28.3542 14.6201L28.0747 14.9001L26.8272 16.1501L26.5477 16.4301L26.8272 16.7101L32.4262 22.3301L26.5378 28.2301L26.2583 28.5101L26.5378 28.7901L27.7853 30.0401L28.0648 30.3201L28.3442 30.0401L35.7596 22.6101L36.0391 22.3301L35.7596 22.0501Z" fill="#00D661"/>
<path d="M13.5933 17.5002H8.80273V14.9102H21.2283V17.5002H16.4377V30.0402H13.5933V17.5002Z" fill="white"/>
</svg>
